<svg width="42" height="42" viewBox="0 0 42 42" fill="none" xmlns="http://www.w3.org/2000/svg">
<path d="M21 28.875C19.644 28.875 18.288 28.4302 17.1314 27.5289L0 14.2078V32.8125C0 34.9863 1.76285 36.75 3.9375 36.75H38.0625C40.2371 36.75 42 34.9871 42 32.8125V14.2078L24.8719 27.5379C23.7152 28.432 22.3535 28.875 21 28.875ZM1.33629 11.9191L18.7433 25.4625C20.0714 26.4961 21.9319 26.4961 23.26 25.4625L40.667 11.9191C41.434 11.2629 42 10.2539 42 9.1875C42 7.01285 40.2363 5.25 38.0625 5.25H3.9375C1.76285 5.25 0 7.01285 0 9.1875C0 10.2539 0.493008 11.2629 1.33629 11.9191Z" fill="#BFDABF"/>
</svg>
