<svg width="42" height="42" viewBox="0 0 42 42" fill="none" xmlns="http://www.w3.org/2000/svg">
<path fill-rule="evenodd" clip-rule="evenodd" d="M21 2.625C10.8527 2.625 2.625 11.0578 2.625 21.4676C2.625 29.7938 7.89141 36.8484 15.1922 39.3422C16.1109 39.5145 16.4473 38.932 16.4473 38.4316C16.4473 37.9805 16.4309 36.7992 16.4227 35.2242C11.3121 36.3645 10.2293 32.6977 10.2293 32.6977C9.39258 30.5238 8.18672 29.9414 8.18672 29.9414C6.52148 28.7684 8.30977 28.793 8.30977 28.793C10.1555 28.9242 11.1234 30.7371 11.1234 30.7371C12.7641 33.6164 15.4219 32.7879 16.4719 32.3039C16.6359 31.0898 17.1117 30.2531 17.6367 29.7855C13.5598 29.3098 9.26953 27.6938 9.26953 20.475C9.26953 18.416 9.9832 16.7344 11.1562 15.4219C10.9676 14.9461 10.3359 13.0266 11.3367 10.4344C11.3367 10.4344 12.8789 9.92578 16.3898 12.3621C17.8582 11.9437 19.425 11.7387 20.9918 11.7305C22.5504 11.7387 24.1254 11.9437 25.5938 12.3621C29.1047 9.92578 30.6387 10.4344 30.6387 10.4344C31.6395 13.0266 31.0078 14.9461 30.8191 15.4219C31.9922 16.7426 32.7059 18.4242 32.7059 20.475C32.7059 27.7102 28.4074 29.3016 24.3141 29.7691C24.9703 30.3516 25.5609 31.5 25.5609 33.2555C25.5609 35.7738 25.5363 37.8082 25.5363 38.4234C25.5363 38.9238 25.8645 39.5145 26.7996 39.3258C34.1168 36.8402 39.375 29.7855 39.375 21.4676C39.375 11.0578 31.1473 2.625 21 2.625Z" fill="#BFDABF"/>
</svg>
