<svg width="29" height="29" viewBox="0 0 29 29" fill="none" xmlns="http://www.w3.org/2000/svg">
<g clip-path="url(#clip0_30_126)">
<path d="M29.1742 25.1991L18.975 15L29.1742 4.80086C30.2753 3.69973 30.2753 1.92698 29.1742 0.825849C28.073 -0.275283 26.3003 -0.275283 25.1991 0.825849L15 11.025L4.80086 0.825849C3.69973 -0.275283 1.92698 -0.275283 0.825849 0.825849C-0.275283 1.92698 -0.275283 3.69973 0.825849 4.80086L11.025 15L0.825849 25.1991C-0.275283 26.3003 -0.275283 28.073 0.825849 29.1742C1.92698 30.2753 3.69973 30.2753 4.80086 29.1742L15 18.975L25.1991 29.1742C26.3003 30.2753 28.073 30.2753 29.1742 29.1742C30.2675 28.073 30.2675 26.2925 29.1742 25.1991Z" fill="#00EE00"/>
</g>
<defs>
<clipPath id="clip0_30_126">
<rect width="29" height="29" fill="white"/>
</clipPath>
</defs>
</svg>
