<svg width="42" height="42" viewBox="0 0 42 42" fill="none" xmlns="http://www.w3.org/2000/svg">
<path d="M22.278 20.078V20.0203C22.266 20.0398 22.2535 20.059 22.2405 20.078H22.278Z" fill="#BFDABF"/>
<path d="M36.4971 3.45746H5.29325C3.79973 3.45746 2.58847 4.63983 2.58847 6.09704V37.6661C2.58847 39.1226 3.79973 40.305 5.29325 40.305H36.4971C37.9928 40.305 39.2041 39.1219 39.2041 37.6661V6.09704C39.2041 4.63909 37.9921 3.45746 36.4971 3.45746ZM13.6869 34.3035H8.15657V17.6651H13.6869V34.3035ZM10.9221 15.3923H10.885C9.03001 15.3923 7.82986 14.1143 7.82986 12.5178C7.82986 10.8858 9.06705 9.64341 10.9584 9.64341C12.8505 9.64341 14.0143 10.8858 14.0514 12.5178C14.0514 14.1143 12.8497 15.3923 10.9221 15.3923ZM33.6293 34.3035H28.099V25.4002C28.099 23.1643 27.2989 21.6382 25.2979 21.6382C23.7703 21.6382 22.8606 22.6672 22.4598 23.6614C22.3139 24.0163 22.2783 24.5126 22.2783 25.0105V34.3027H16.748C16.748 34.3027 16.8206 19.2238 16.748 17.6644H22.2783V20.0195C23.0132 18.886 24.3274 17.2718 27.2634 17.2718C30.9016 17.2718 33.6301 19.6506 33.6301 24.7616L33.6293 34.3035Z" fill="#BFDABF"/>
</svg>
