<svg width="34" height="34" viewBox="0 0 34 34" fill="none" xmlns="http://www.w3.org/2000/svg">
<path d="M31.1666 25.5071C31.1666 26.2862 30.5348 26.9167 29.7571 26.9167H18.4096C18.0357 26.9167 17.6772 26.7682 17.4128 26.5038C17.1485 26.2395 17 25.8809 17 25.5071C17 25.1332 17.1485 24.7747 17.4128 24.5104C17.6772 24.246 18.0357 24.0975 18.4096 24.0975H29.7571C30.5362 24.0975 31.1666 24.7279 31.1666 25.5071ZM31.1666 17C31.1666 17.7792 30.5348 18.4096 29.7571 18.4096H4.2429C3.86905 18.4096 3.51052 18.2611 3.24617 17.9967C2.98182 17.7324 2.83331 17.3738 2.83331 17C2.83331 16.6262 2.98182 16.2676 3.24617 16.0033C3.51052 15.7389 3.86905 15.5904 4.2429 15.5904H29.7571C30.5362 15.5904 31.1666 16.2222 31.1666 17ZM29.7571 9.90249C30.1309 9.90249 30.4894 9.75399 30.7538 9.48964C31.0181 9.22529 31.1666 8.86676 31.1666 8.49291C31.1666 8.11907 31.0181 7.76053 30.7538 7.49619C30.4894 7.23184 30.1309 7.08333 29.7571 7.08333H12.7429C12.5578 7.08333 12.3745 7.11979 12.2035 7.19063C12.0325 7.26146 11.8771 7.36529 11.7462 7.49619C11.6153 7.62708 11.5114 7.78247 11.4406 7.95349C11.3698 8.12451 11.3333 8.3078 11.3333 8.49291C11.3333 8.67802 11.3698 8.86132 11.4406 9.03234C11.5114 9.20335 11.6153 9.35875 11.7462 9.48964C11.8771 9.62053 12.0325 9.72436 12.2035 9.7952C12.3745 9.86603 12.5578 9.90249 12.7429 9.90249H29.7571Z" fill="#00EE00"/>
</svg>
